<?xml version="1.0" encoding="UTF-8"?>
<svg version="1.1" xmlns="http://www.w3.org/2000/svg" width="870" height="870">
<style>path { stroke: #33383A; stroke-width: 1.2px; stroke-linejoin: round; stroke-linecap: round; }</style>
<path d="M0 0 C1.1420137 -0.00101212 1.1420137 -0.00101212 2.30709839 -0.00204468 C16.81938727 0.01818032 31.01723855 1.05364103 45.375 3.25 C46.42880859 3.4056543 47.48261719 3.56130859 48.56835938 3.72167969 C87.71605456 9.71220971 125.71494609 25.85428544 158.45410156 47.95361328 C160.25128848 49.16650887 162.05800424 50.36370337 163.8671875 51.55859375 C171.86273646 56.93689467 179.13515856 62.91755202 186.375 69.25 C187.48488281 70.2090625 187.48488281 70.2090625 188.6171875 71.1875 C190.54794778 72.86237639 192.46146935 74.55548792 194.375 76.25 C195.14070313 76.91128906 195.90640625 77.57257813 196.6953125 78.25390625 C203.43053421 84.15514282 209.46573571 90.54381732 215.375 97.25 C216.04982422 98.00772705 216.04982422 98.00772705 216.73828125 98.78076172 C224.69987321 107.75476073 231.65044111 117.32442737 238.375 127.25 C239.10299805 128.31855225 239.10299805 128.31855225 239.84570312 129.40869141 C246.12883836 138.68329244 251.62345201 148.07725822 256.39355469 158.21191406 C257.36846341 160.236426 258.39822648 162.22293512 259.4453125 164.2109375 C279.57103069 203.24125264 289.70957381 251.44850028 287.375 295.25 C287.33246094 296.10416504 287.28992188 296.95833008 287.24609375 297.83837891 C285.35934234 332.205072 277.88489002 365.17843802 265.20361328 397.11889648 C264.54560975 398.81121022 263.9491859 400.52744231 263.375 402.25 C264.2103125 401.816875 264.2103125 401.816875 265.0625 401.375 C270.45584516 398.75121046 274.37460808 397.34994121 280.375 398.25 C283.9455944 400.75701309 285.12954389 402.47031589 286.4375 406.625 C286.35975059 411.13446583 285.45697517 414.00221252 282.375 417.25 C278.24527 419.60821614 273.88898947 421.22398935 269.4375 422.875 C268.27669922 423.32617188 267.11589844 423.77734375 265.91992188 424.2421875 C263.58310263 425.14726607 261.24132991 426.0396593 258.89477539 426.91918945 C256.51206884 427.82007961 254.13889914 428.74653614 251.77514648 429.69604492 C250.63247314 430.15342041 249.4897998 430.6107959 248.3125 431.08203125 C246.78109375 431.70428589 246.78109375 431.70428589 245.21875 432.33911133 C241.03929066 433.6778444 237.51505893 433.68689681 233.375 432.25 C227.70409538 428.81761036 226.97207066 420.65078929 225.47753906 414.64135742 C224.67901994 411.31175656 223.91276235 407.97525529 223.15795898 404.63549805 C222.68555012 402.55390819 222.20136684 400.4752724 221.71679688 398.39648438 C221.4107368 397.05224741 221.10537368 395.70785153 220.80078125 394.36328125 C220.38953003 392.56564331 220.38953003 392.56564331 219.9699707 390.73168945 C219.16403282 386.01544811 218.67807001 381.90062367 220.5625 377.4375 C222.75972158 374.78568085 224.01804765 374.01294372 227.375 373.25 C231.99218018 373.49300948 235.07866443 373.94697816 238.375 377.25 C239.29945923 379.86074135 240.01477244 382.25900114 240.625 384.9375 C240.79773438 385.63939453 240.97046875 386.34128906 241.1484375 387.06445312 C241.57094272 388.78968277 241.97482466 390.51945451 242.375 392.25 C246.91041303 386.89266174 248.50909562 379.87277645 250.6875 373.3125 C250.93144501 372.58257843 251.17539001 371.85265686 251.42672729 371.10061646 C257.97530041 351.36505429 262.58395107 330.99825519 264.375 310.25 C264.48457031 308.99703125 264.59414063 307.7440625 264.70703125 306.453125 C269.6651105 241.6675562 249.02766958 170.71415561 206.4375 120.9375 C204.76710133 119.02524307 203.07464384 117.13663257 201.375 115.25 C200.20709103 113.89690462 199.04027949 112.54286054 197.875 111.1875 C196.71040008 109.8731658 195.54349395 108.56087347 194.375 107.25 C193.55515625 106.31414062 192.7353125 105.37828125 191.890625 104.4140625 C186.6244725 98.47380467 181.2240951 93.22964615 174.9609375 88.30859375 C172.65957174 86.47653974 170.52225239 84.56971419 168.375 82.5625 C149.57579791 65.84842068 127.41838307 53.16251674 104.375 43.25 C103.09499558 42.67590722 101.81504982 42.10168362 100.53515625 41.52734375 C79.70223462 32.36932342 57.79189776 27.64533047 35.375 24.25 C34.52695801 24.11722656 33.67891602 23.98445313 32.80517578 23.84765625 C10.674167 20.50429146 -13.51509232 20.88122551 -35.625 24.25 C-36.62740723 24.40065918 -37.62981445 24.55131836 -38.66259766 24.70654297 C-96.37647724 33.69653977 -147.83516555 60.65510302 -188.625 102.25 C-189.42550781 103.04535156 -190.22601563 103.84070313 -191.05078125 104.66015625 C-216.24795667 130.01027356 -235.65413657 161.62883981 -247.625 195.25 C-247.9245459 196.07209961 -248.2240918 196.89419922 -248.53271484 197.74121094 C-271.80745411 262.04744315 -269.15025622 334.02595479 -240.16992188 396.08691406 C-232.82644461 411.41909194 -225.01676093 426.00338783 -214.83056641 439.63134766 C-213.68896301 441.16412014 -212.56842292 442.71251513 -211.44921875 444.26171875 C-198.71222866 461.70231395 -183.86550808 478.18010886 -166.625 491.25 C-165.12478161 492.49973788 -163.62479126 493.74974956 -162.125 495 C-145.80493228 508.03552579 -127.42447441 518.28232896 -108.625 527.25 C-107.69445801 527.69641846 -107.69445801 527.69641846 -106.74511719 528.15185547 C-46.18651479 556.8619491 25.61728984 558.63835009 88.375 536.25 C111.69561583 527.88430687 133.22984039 516.65944231 153.375 502.25 C154.12813477 501.71310547 154.88126953 501.17621094 155.65722656 500.62304688 C163.57767719 494.93385804 171.05097305 489.01574592 178.04296875 482.2109375 C181.38627091 479.39965159 184.00315091 478.22141981 188.375 478.3125 C192.27992871 479.53279022 193.9024574 481.00037259 196.375 484.25 C197.66363448 488.41911155 197.83788668 490.32422663 195.875 494.25 C189.02497305 502.47003234 180.8669964 508.81701564 172.375 515.25 C171.33859375 516.04277344 170.3021875 516.83554687 169.234375 517.65234375 C151.60811146 530.69838364 132.38998427 541.36673811 112.375 550.25 C111.34375 550.724375 110.3125 551.19875 109.25 551.6875 C42.84900327 581.0274753 -34.37935158 579.66985984 -101.625 554.25 C-102.32189941 553.9917041 -103.01879883 553.7334082 -103.73681641 553.46728516 C-129.08816937 543.98564774 -152.53261068 530.1126321 -173.625 513.25 C-174.50671875 512.56164062 -175.3884375 511.87328125 -176.296875 511.1640625 C-182.30933642 506.43998567 -187.99280918 501.41826758 -193.625 496.25 C-194.69225943 495.28726254 -195.75999004 494.32504724 -196.828125 493.36328125 C-203.50933605 487.31651683 -209.75527323 481.10313649 -215.625 474.25 C-216.50616787 473.24318968 -217.38769564 472.23669427 -218.26953125 471.23046875 C-224.91206113 463.58688155 -230.92995968 455.62019815 -236.625 447.25 C-237.35203125 446.18652344 -238.0790625 445.12304688 -238.828125 444.02734375 C-258.31764562 414.61779734 -271.44461556 382.44747273 -279.625 348.25 C-279.92301514 347.02337646 -279.92301514 347.02337646 -280.22705078 345.77197266 C-296.72874554 276.4013311 -281.7807973 199.66269752 -245.28662109 139.04711914 C-227.58386045 110.41113923 -204.57974514 82.61031208 -177.625 62.25 C-176.69945312 61.53070313 -175.77390625 60.81140625 -174.8203125 60.0703125 C-163.33447683 51.2655207 -151.32157001 43.27062608 -138.61132812 36.34228516 C-137.22893262 35.58210356 -135.85304612 34.81001444 -134.48242188 34.02880859 C-93.76659954 10.83614116 -46.64963701 0.03765413 0 0 Z " fill="#33383A" transform="translate(434.625,145.75)"/><path d="M0 0 C2.75329021 1.79562405 4.52627461 3.05254922 6 6 C6.10803732 8.78349341 6.15490927 11.54263592 6.15821838 14.32681274 C6.16562535 15.634071 6.16562535 15.634071 6.17318195 16.96773851 C6.18861156 19.90508539 6.19693231 22.84241033 6.20532227 25.77978516 C6.2148965 27.87857763 6.22490631 29.97736815 6.23532104 32.07615662 C6.26242545 37.7886535 6.28340498 43.5011587 6.30332303 49.21368456 C6.32514852 55.17814693 6.35255398 61.14258354 6.37937927 67.10702515 C6.42935275 78.40817963 6.47427427 89.70934838 6.51740164 101.01053083 C6.56673429 113.87371105 6.62166712 126.73686541 6.67708123 139.60002065 C6.79097272 166.06665633 6.8977961 192.53331679 7 219 C8.1724678 219.45978745 8.1724678 219.45978745 9.36862183 219.92886353 C11.81013139 220.92271153 13.94096288 222.04120019 16.1953125 223.3984375 C17.37734253 224.10782471 17.37734253 224.10782471 18.58325195 224.83154297 C19.84141724 225.5955542 19.84141724 225.5955542 21.125 226.375 C22.00953857 226.90883301 22.89407715 227.44266602 23.80541992 227.99267578 C30.47047861 232.03142277 37.06660061 236.17290215 43.64111328 240.35693359 C49.8795532 244.31823408 56.17927406 248.17160774 62.5 252 C70.55489778 256.88004804 78.5527035 261.83871292 86.50439453 266.88500977 C92.35151816 270.59566042 98.23646299 274.23992091 104.14111328 277.85839844 C116.80623088 285.6364507 129.42284688 293.49352855 142.01416016 301.39038086 C146.99561357 304.51157909 151.98831141 307.61076375 157.01171875 310.6640625 C157.96755859 311.24736328 158.92339844 311.83066406 159.90820312 312.43164062 C161.70668704 313.52741403 163.50856738 314.61764043 165.31445312 315.70117188 C175.71619705 322.05179766 175.71619705 322.05179766 177.8828125 327.02734375 C178.2635198 330.03001904 178.49577757 332.09787925 177.00390625 334.8125 C174.07094048 338.43301561 172.17106844 339.83578121 167.6015625 340.4765625 C161.3157744 340.37759598 156.51899786 336.64515563 151.375 333.375 C150.28050537 332.69856445 149.18601074 332.02212891 148.05834961 331.32519531 C144.69220036 329.23674934 141.34443892 327.12299598 138 325 C136.50605713 324.05592285 136.50605713 324.05592285 134.98193359 323.09277344 C130.35182863 320.16427724 125.73281993 317.21905711 121.12109375 314.26171875 C116.49196567 311.30083828 111.82219525 308.41387659 107.125 305.5625 C100.11105367 301.30476718 93.14141824 296.98009614 86.1875 292.625 C75.14817294 285.71221408 64.07995445 278.84742017 53 272 C49.39542569 269.77149187 45.79128116 267.54229052 42.1875 265.3125 C41.31029297 264.76980469 40.43308594 264.22710937 39.52929688 263.66796875 C33.64042213 260.02226417 27.76499407 256.3557081 21.89868164 252.67382812 C17.61735044 249.99288762 13.30817029 247.36115782 8.98706055 244.74487305 C-12.18866026 231.90374086 -12.18866026 231.90374086 -14 227 C-14.19490624 224.0228972 -14.2783395 221.13966022 -14.26742554 218.16261292 C-14.27195665 217.26025797 -14.27648776 216.35790303 -14.28115618 215.428204 C-14.29383804 212.39812918 -14.29217738 209.36823322 -14.29052734 206.33813477 C-14.29651017 204.16834277 -14.30331514 201.99855291 -14.31088257 199.82876587 C-14.32857332 193.93008345 -14.3332392 188.03145903 -14.33451414 182.13275266 C-14.33641153 177.21206705 -14.34376709 172.291395 -14.35085833 167.3707146 C-14.36715106 155.76430732 -14.37202642 144.15793107 -14.37060547 132.55151367 C-14.36940332 120.56925653 -14.39051765 108.58724622 -14.4220928 96.60502964 C-14.44822022 86.32469253 -14.45897427 76.0444143 -14.45769465 65.76404423 C-14.45718404 59.62086125 -14.46292203 53.47783816 -14.48405075 47.33468819 C-14.50337393 41.55871924 -14.50359812 35.78306371 -14.48901749 30.00708389 C-14.48692103 27.8854381 -14.49167978 25.76377298 -14.5037384 23.64216042 C-14.51911822 20.74919222 -14.5099308 17.85731455 -14.49447632 14.96437073 C-14.50476344 14.12176384 -14.51505057 13.27915695 -14.52564943 12.41101652 C-14.47877138 8.44919734 -14.27916842 6.45398797 -12.15659523 3.00222683 C-8.44208822 -0.44639695 -4.89689625 -0.42214623 0 0 Z " fill="#33383A" transform="translate(439,210)"/>
<path d="M0 0 C0.66 0 1.32 0 2 0 C2.31525635 0.56058105 2.6305127 1.12116211 2.95532227 1.69873047 C11.29429155 16.51591967 19.73832016 31.26965776 28.25585938 45.98486328 C29.86597775 48.7683126 31.47278242 51.5536381 33.078125 54.33984375 C34.01019055 55.9558596 34.94247236 57.57175075 35.875 59.1875 C36.31062256 59.94248779 36.74624512 60.69747559 37.19506836 61.4753418 C39.32156891 65.14794759 41.47426527 68.80148629 43.67578125 72.4296875 C44.3112085 73.47733276 44.3112085 73.47733276 44.95947266 74.54614258 C45.75558704 75.85332124 46.55579912 77.15801653 47.36083984 78.4597168 C50 82.78294151 50 82.78294151 50 85 C17.66 85 -14.68 85 -48 85 C-43.68226663 76.36453325 -39.41184865 68.01135877 -34.5 59.75 C-33.2728243 57.6657255 -32.04628433 55.58107659 -30.8203125 53.49609375 C-30.19286133 52.43116699 -29.56541016 51.36624023 -28.91894531 50.26904297 C-25.70871728 44.80021939 -22.54115857 39.30692011 -19.375 33.8125 C-18.75616943 32.73919434 -18.13733887 31.66588867 -17.49975586 30.56005859 C-11.63981027 20.38863047 -5.81251042 10.19859758 0 0 Z " fill="#363B3D" transform="translate(434,756)"/>
<path d="M0 0 C32.34 0 64.68 0 98 0 C93.42410696 9.15178609 89.05294463 17.80893258 83.73828125 26.44140625 C80.09115046 32.44754412 76.65728581 38.57797506 73.1875 44.6875 C67.82214099 54.12948829 62.37493928 63.51277389 56.7175293 72.78393555 C54.2871422 76.77998158 52.01920878 80.77374907 50 85 C46.48904242 81.84794031 44.33027209 78.36041533 42.125 74.25 C41.32879213 72.80099953 40.53047926 71.35315446 39.73046875 69.90625 C39.29524902 69.11863281 38.8600293 68.33101563 38.41162109 67.51953125 C35.81885772 62.89183876 33.1218897 58.32493746 30.4375 53.75 C24.41790536 43.47090675 18.48758091 33.14334731 12.59350586 22.79199219 C8.86655788 16.24986145 5.09976083 9.73655024 1.26538086 3.25683594 C0 1 0 1 0 0 Z " fill="#36393C" transform="translate(386,23)"/>
<path d="M0 0 C3.5156635 1.4062654 6.49712396 2.74268824 9.74609375 4.58203125 C10.65472168 5.09531982 11.56334961 5.6086084 12.49951172 6.13745117 C13.95381592 6.96660034 13.95381592 6.96660034 15.4375 7.8125 C16.45086426 8.38782471 17.46422852 8.96314941 18.50830078 9.5559082 C28.23125418 15.09520505 37.86394731 20.78327447 47.48095703 26.50390625 C51.25141593 28.74323288 55.03176482 30.9655856 58.8125 33.1875 C59.4825708 33.58283936 60.1526416 33.97817871 60.84301758 34.38549805 C64.49183407 36.53661652 68.15251542 38.66447596 71.828125 40.76953125 C72.61985107 41.22626221 73.41157715 41.68299316 74.22729492 42.15356445 C75.75519464 43.03452284 77.28649795 43.90961086 78.8215332 44.77807617 C80.58109526 45.79639635 82.29608902 46.8910717 84 48 C84 48.66 84 49.32 84 50 C82.95585938 50.57105469 81.91171875 51.14210938 80.8359375 51.73046875 C70.48858638 57.41846537 60.29000299 63.32631363 50.140625 69.359375 C45.64042171 72.03332262 41.12857991 74.68648961 36.609375 77.328125 C35.97397293 77.69969223 35.33857086 78.07125946 34.68391418 78.4540863 C32.16222158 79.92844011 29.6404258 81.40260822 27.11703491 82.87405396 C19.16601126 87.5037721 19.16601126 87.5037721 11.30908203 92.29052734 C10.71245255 92.66247726 10.11582306 93.03442719 9.50111389 93.41764832 C7.84753118 94.45309248 6.19816948 95.49526864 4.54907227 96.5378418 C2 98 2 98 0 98 C0 65.66 0 33.32 0 0 Z " fill="#383B3F" transform="translate(26,383)"/>
<path d="M0 0 C0 32.34 0 64.68 0 98 C-7.52817171 94.23591414 -14.76463609 90.50862721 -21.9375 86.1875 C-23.85122388 85.04630697 -25.76530573 83.90571407 -27.6796875 82.765625 C-28.69385742 82.16041016 -29.70802734 81.55519531 -30.75292969 80.93164062 C-36.67484971 77.40876609 -42.61821449 73.92246361 -48.5625 70.4375 C-49.17474426 70.07837524 -49.78698853 69.71925049 -50.41778564 69.34924316 C-61.5631863 62.81401733 -72.75976767 56.37089861 -84 50 C-84 49.34 -84 48.68 -84 48 C-83.36425049 47.63463135 -82.72850098 47.2692627 -82.07348633 46.89282227 C-67.9258859 38.75754255 -53.81223157 30.56764303 -39.73999023 22.30273438 C-38.53500131 21.59503876 -37.3300046 20.88735641 -36.125 20.1796875 C-35.5339296 19.832547 -34.94285919 19.48540649 -34.33387756 19.12774658 C-30.20634629 16.70485248 -26.07359556 14.29105452 -21.9375 11.8828125 C-20.82971191 11.23771729 -19.72192383 10.59262207 -18.58056641 9.92797852 C-16.49475832 8.71414305 -14.40851789 7.5010501 -12.32177734 6.28881836 C-11.3983252 5.75135986 -10.47487305 5.21390137 -9.5234375 4.66015625 C-8.71825684 4.19230713 -7.91307617 3.72445801 -7.08349609 3.24243164 C-1.64609943 0 -1.64609943 0 0 0 Z " fill="#373C3E" transform="translate(844,383)"/>
<path d="M0 0 C32.34 0 64.68 0 98 0 C98 0.33 98 0.66 98 1 C66.98 1 35.96 1 4 1 C3.34 2.32 2.68 3.64 2 5 C1.34 3.35 0.68 1.7 0 0 Z " fill="#4A4A4C" transform="translate(386,23)"/>
<path d="M0 0 C1.62695173 0.00502997 3.25390499 0.0095902 4.88085938 0.01367188 C8.81644475 0.02454755 12.75195493 0.04172774 16.6875 0.0625 C16.6875 0.3925 16.6875 0.7225 16.6875 1.0625 C4.3125 1.5575 4.3125 1.5575 -8.3125 2.0625 C-8.6425 3.0525 -8.9725 4.0425 -9.3125 5.0625 C-14.5925 4.7325 -19.8725 4.4025 -25.3125 4.0625 C-25.3125 3.7325 -25.3125 3.4025 -25.3125 3.0625 C-28.2825 2.5675 -28.2825 2.5675 -31.3125 2.0625 C-31.3125 1.7325 -31.3125 1.4025 -31.3125 1.0625 C-20.85300232 0.03291677 -10.49830679 -0.05712045 0 0 Z " fill="#4E5150" transform="translate(436.3125,145.9375)"/>
<path d="M0 0 C0.66 0.66 1.32 1.32 2 2 C1.01 2 0.02 2 -1 2 C-0.67 1.34 -0.34 0.68 0 0 Z M-1 3 C-0.34 3.66 0.32 4.32 1 5 C0.01 5.33 -0.98 5.66 -2 6 C-1.67 5.01 -1.34 4.02 -1 3 Z M-8 4 C-4.73988358 4.69378511 -3.20961747 5.45893991 -1 8 C-0.34 7.67 0.32 7.34 1 7 C1.66 7.33 2.32 7.66 3 8 C3.66 7.34 4.32 6.68 5 6 C6 9 6 9 5.00390625 11.26171875 C4.52824219 12.06222656 4.05257813 12.86273438 3.5625 13.6875 C3.08941406 14.49574219 2.61632812 15.30398437 2.12890625 16.13671875 C1.57009766 17.05904297 1.57009766 17.05904297 1 18 C-3.5565527 14.28725335 -5.57400393 9.20992598 -8 4 Z " fill="#3D3F41" transform="translate(435,90)"/>
<path d="M0 0 C0.33 0 0.66 0 1 0 C1.02505615 0.73114014 1.0501123 1.46228027 1.07592773 2.21557617 C1.19222641 5.53971417 1.31479928 8.86359241 1.4375 12.1875 C1.47681641 13.33798828 1.51613281 14.48847656 1.55664062 15.67382812 C1.59853516 16.78564453 1.64042969 17.89746094 1.68359375 19.04296875 C1.72025146 20.06414795 1.75690918 21.08532715 1.79467773 22.13745117 C1.98850019 24.83967262 2.45134598 27.35195085 3 30 C2.87890625 32.45703125 2.87890625 32.45703125 2.5625 34.8125 C2.46066406 35.60269531 2.35882813 36.39289063 2.25390625 37.20703125 C2.17011719 37.79871094 2.08632812 38.39039063 2 39 C2.66 39 3.32 39 4 39 C3.38722388 41.96175123 2.74627478 43.38058783 1 46 C-0.13803975 34.78153101 -1.19642354 23.59743327 -1.1875 12.3125 C-1.18814453 11.53028076 -1.18878906 10.74806152 -1.18945312 9.94213867 C-1.15555038 6.4644105 -0.92729235 3.34611478 0 0 Z " fill="#404140" transform="translate(149,420)"/>
<path d="M0 0 C0.66 0.33 1.32 0.66 2 1 C1.82473367 5.46929132 1.41954213 7.51906146 -1.5625 10.9375 C-5.28741536 13.71079465 -8.49743055 13.38815254 -13 13 C-12.34 12.67 -11.68 12.34 -11 12 C-9.86649466 9.98330173 -9.86649466 9.98330173 -9 8 C-7.68 8 -6.36 8 -5 8 C-2.75 7.5 -2.75 7.5 -1 6 C-0.18415432 2.94091587 -0.18415432 2.94091587 0 0 Z " fill="#444647" transform="translate(615,537)"/>
<path d="M0 0 C0 0.33 0 0.66 0 1 C-2.31 1.33 -4.62 1.66 -7 2 C-6.34 2.66 -5.68 3.32 -5 4 C-6 5 -6 5 -9.37890625 5.09765625 C-10.77347077 5.09098369 -12.16801743 5.07902532 -13.5625 5.0625 C-14.27341797 5.05798828 -14.98433594 5.05347656 -15.71679688 5.04882812 C-17.47790013 5.03700864 -19.23896036 5.01907263 -21 5 C-21 3 -21 3 -19 1 C-12.76108108 -0.11334243 -6.32109357 -0.11926592 0 0 Z " fill="#3E4345" transform="translate(464,147)"/>
<path d="M0 0 C1.37466431 0.07069702 1.37466431 0.07069702 2.77709961 0.14282227 C4.26113281 0.21533203 4.26113281 0.21533203 5.77514648 0.28930664 C7.33652344 0.37341797 7.33652344 0.37341797 8.92944336 0.45922852 C10.49662109 0.53753906 10.49662109 0.53753906 12.09545898 0.61743164 C14.68622572 0.74756148 17.27665002 0.8825401 19.86694336 1.02172852 C19.86694336 1.68172852 19.86694336 2.34172852 19.86694336 3.02172852 C16.40867994 3.07961858 12.95054043 3.11528672 9.49194336 3.14672852 C8.50709961 3.16348633 7.52225586 3.18024414 6.50756836 3.19750977 C5.56655273 3.20395508 4.62553711 3.21040039 3.65600586 3.21704102 C2.35203857 3.23275146 2.35203857 3.23275146 1.02172852 3.2487793 C-1.13305664 3.02172852 -1.13305664 3.02172852 -3.13305664 1.02172852 C-2.13305664 0.02172852 -2.13305664 0.02172852 0 0 Z " fill="#3B4043" transform="translate(407.133056640625,148.978271484375)"/>
<path d="M0 0 C10.89 0 21.78 0 33 0 C33 0.33 33 0.66 33 1 C23.43 1 13.86 1 4 1 C3.34 2.32 2.68 3.64 2 5 C1.34 3.35 0.68 1.7 0 0 Z " fill="#444446" transform="translate(386,23)"/>
<path d="M0 0 C0 3.69418201 -1.28179295 5.77836178 -3 9 C-4.98 8.34 -6.96 7.68 -9 7 C-9 6.34 -9 5.68 -9 5 C-6.03 3.35 -3.06 1.7 0 0 Z " fill="#494B4D" transform="translate(769,426)"/>
<path d="M0 0 C4.88049925 3.9419417 9.0580583 8.11950075 13 13 C10.52833568 11.85134272 9.01570188 11.01674867 7.125 9 C4.58573035 6.61009915 2.33088304 5.90842265 -1 5 C-0.67 3.35 -0.34 1.7 0 0 Z " fill="#2B2F2E" transform="translate(237,609)"/>
<path d="M0 0 C0.6875 2.0625 0.6875 2.0625 1 4 C-1.1875 4.75 -1.1875 4.75 -4 5 C-6.8125 3.0625 -6.8125 3.0625 -9 1 C-3.375 -1.125 -3.375 -1.125 0 0 Z " fill="#3C3E3D" transform="translate(346,162)"/>
<path d="M0 0 C0.33 0 0.66 0 1 0 C1.05799124 3.77076889 1.09359306 7.54142334 1.125 11.3125 C1.15013672 12.9202832 1.15013672 12.9202832 1.17578125 14.56054688 C1.18222656 15.58857422 1.18867188 16.61660156 1.1953125 17.67578125 C1.20578613 18.62364502 1.21625977 19.57150879 1.22705078 20.5480957 C1 23 1 23 -1 26 C-1.38218767 24.34385343 -1.71395102 22.67542976 -2 21 C-1.67 20.67 -1.34 20.34 -1 20 C-0.84344973 18.51361008 -0.74933057 17.02050873 -0.68359375 15.52734375 C-0.64169922 14.62822266 -0.59980469 13.72910156 -0.55664062 12.80273438 C-0.51732422 11.85720703 -0.47800781 10.91167969 -0.4375 9.9375 C-0.37272461 8.5134082 -0.37272461 8.5134082 -0.30664062 7.06054688 C-0.20020724 4.70718647 -0.09818992 2.35371646 0 0 Z " fill="#424344" transform="translate(169,428)"/>
<path d="M0 0 C0 3.19610552 -0.54671542 4.41717626 -2 7.1875 C-2.37125 7.90292969 -2.7425 8.61835938 -3.125 9.35546875 C-3.41375 9.89816406 -3.7025 10.44085938 -4 11 C-4.66 11 -5.32 11 -6 11 C-6 10.34 -6 9.68 -6 9 C-6.66 9 -7.32 9 -8 9 C-8 8.34 -8 7.68 -8 7 C-7.34 7 -6.68 7 -6 7 C-6 6.34 -6 5.68 -6 5 C-4.04072937 3.2856382 -2.04119788 1.61594832 0 0 Z " fill="#292D2F" transform="translate(205,267)"/>
<path d="M0 0 C6.33393082 -0.34548714 11.10261508 0.70657253 17 3 C13.22628488 4.3357457 10.14168653 3.72408671 6.25 3.0625 C4.49429687 2.77052734 4.49429687 2.77052734 2.703125 2.47265625 C1.81109375 2.31667969 0.9190625 2.16070312 0 2 C0 1.34 0 0.68 0 0 Z " fill="#404343" transform="translate(470,168)"/>
<path d="M0 0 C0.33 1.32 0.66 2.64 1 4 C-4.17578125 7.22265625 -4.17578125 7.22265625 -6 8 C-6.99 7.67 -7.98 7.34 -9 7 C-9 6.34 -9 5.68 -9 5 C-7.88625 4.54625 -6.7725 4.0925 -5.625 3.625 C-2.03800992 2.27534014 -2.03800992 2.27534014 0 0 Z " fill="#3F4343" transform="translate(576,677)"/>
<path d="M0 0 C2.04119788 1.61594832 4.04072937 3.2856382 6 5 C6 5.66 6 6.32 6 7 C5.01 7 4.02 7 3 7 C2.67 7.66 2.34 8.32 2 9 C-0.37783838 6.62216162 -0.59009208 5.27926335 -1 2 C-0.67 1.34 -0.34 0.68 0 0 Z " fill="#2D3331" transform="translate(667,268)"/>
<path d="M0 0 C0.66 0 1.32 0 2 0 C2 3.3 2 6.6 2 10 C1.34 10 0.68 10 0 10 C-0.66 10.66 -1.32 11.32 -2 12 C-2 10.02 -2 8.04 -2 6 C-1.34 6 -0.68 6 0 6 C-0.33 5.01 -0.66 4.02 -1 3 C-0.67 2.01 -0.34 1.02 0 0 Z " fill="#282A2D" transform="translate(152,402)"/>
<path d="M0 0 C3.96 0 7.92 0 12 0 C11.01 1.485 11.01 1.485 10 3 C7.6171875 3.29296875 7.6171875 3.29296875 4.875 3.1875 C3.96492188 3.16042969 3.05484375 3.13335938 2.1171875 3.10546875 C1.41851562 3.07066406 0.71984375 3.03585937 0 3 C0 2.01 0 1.02 0 0 Z " fill="#2B2F2F" transform="translate(407,714)"/>
<path d="M0 0 C1.32 0 2.64 0 4 0 C4 0.66 4 1.32 4 2 C4.66 2 5.32 2 6 2 C6 2.66 6 3.32 6 4 C3.69 4.33 1.38 4.66 -1 5 C-0.67 3.35 -0.34 1.7 0 0 Z " fill="#2C3433" transform="translate(686,569)"/>
<path d="M0 0 C3 2 3 2 3.6875 4.625 C3.790625 5.40875 3.89375 6.1925 4 7 C2 7 0 7 -2 7 C-1.34 4.69 -0.68 2.38 0 0 Z " fill="#282B2A" transform="translate(167,520)"/>
<path d="M0 0 C3.7952131 1.49097658 5.61042731 3.75700849 8 7 C4.83119306 7 3.56310828 6.7941758 1 5 C0.25 2.375 0.25 2.375 0 0 Z " fill="#47484A" transform="translate(630,224)"/>
<path d="M0 0 C2.62187494 1.04874998 3.79371361 1.64931313 5.25 4.125 C5.4975 4.74375 5.745 5.3625 6 6 C4.68 6.33 3.36 6.66 2 7 C1.34 4.69 0.68 2.38 0 0 Z " fill="#272A29" transform="translate(251,624)"/>
<path d="M0 0 C2 2 2 2 2 5 C-0.5 7.6875 -0.5 7.6875 -3 10 C-3.66 9.67 -4.32 9.34 -5 9 C-3.35 6.03 -1.7 3.06 0 0 Z " fill="#3B3E40" transform="translate(191,282)"/>
<path d="M0 0 C0.99 0.99 1.98 1.98 3 3 C3 2.34 3 1.68 3 1 C3.99 1.33 4.98 1.66 6 2 C4.515 4.475 4.515 4.475 3 7 C1.68 6.01 0.36 5.02 -1 4 C-0.67 2.68 -0.34 1.36 0 0 Z " fill="#3A4041" transform="translate(221,266)"/>
<path d="M0 0 C1.32 0.66 2.64 1.32 4 2 C3.071875 2.4021875 3.071875 2.4021875 2.125 2.8125 C-0.2995233 3.95556848 -0.2995233 3.95556848 -2 7 C-2.66 7 -3.32 7 -4 7 C-3.6875 4.625 -3.6875 4.625 -3 2 C-2.01 1.34 -1.02 0.68 0 0 Z " fill="#2C3031" transform="translate(274,196)"/>
<path d="M0 0 C2.475 0.99 2.475 0.99 5 2 C5 2.66 5 3.32 5 4 C1.535 5.485 1.535 5.485 -2 7 C-2 6.01 -2 5.02 -2 4 C-1.34 4 -0.68 4 0 4 C0 2.68 0 1.36 0 0 Z " fill="#4B4B4D" transform="translate(105,429)"/>
<path d="M0 0 C0.66 0 1.32 0 2 0 C2.625 1.8125 2.625 1.8125 3 4 C2.01 5.485 2.01 5.485 1 7 C1 6.34 1 5.68 1 5 C0.34 5 -0.32 5 -1 5 C-1 6.65 -1 8.3 -1 10 C-1.33 10 -1.66 10 -2 10 C-1.85950482 8.52031676 -1.71245174 7.04125484 -1.5625 5.5625 C-1.48128906 4.73878906 -1.40007812 3.91507812 -1.31640625 3.06640625 C-1 1 -1 1 0 0 Z " fill="#2C3131" transform="translate(168,330)"/>
<path d="M0 0 C0.66 0 1.32 0 2 0 C2.99 1.98 3.98 3.96 5 6 C1.89448334 6 0.64738916 5.4606285 -2 4 C-1.34 2.68 -0.68 1.36 0 0 Z " fill="#474948" transform="translate(434,756)"/>
<path d="M0 0 C0.33 0.66 0.66 1.32 1 2 C2.32 1.67 3.64 1.34 5 1 C5.66 2.65 6.32 4.3 7 6 C3.54074837 4.7508258 0.85306797 3.32472205 -2 1 C-1.34 0.67 -0.68 0.34 0 0 Z " fill="#4B4C4D" transform="translate(288,675)"/>
<path d="M0 0 C0.99 0.33 1.98 0.66 3 1 C2.01 2.485 2.01 2.485 1 4 C1.99 4.33 2.98 4.66 4 5 C3.01 6.485 3.01 6.485 2 8 C1.01 7.67 0.02 7.34 -1 7 C-1.33 5.02 -1.66 3.04 -2 1 C-1.34 0.67 -0.68 0.34 0 0 Z " fill="#3A3D40" transform="translate(707,544)"/>
<path d="M0 0 C-3.75 3 -3.75 3 -6 3 C-6 3.66 -6 4.32 -6 5 C-7.32 4.67 -8.64 4.34 -10 4 C-6.87839899 0.56623888 -4.64008112 -1.54669371 0 0 Z " fill="#2C3031" transform="translate(309,178)"/>
<path d="M0 0 C-0.99 0.495 -0.99 0.495 -2 1 C-2.33 1.99 -2.66 2.98 -3 4 C-3.66 4 -4.32 4 -5 4 C-5 3.34 -5 2.68 -5 2 C-5.66 2 -6.32 2 -7 2 C-7 1.34 -7 0.68 -7 0 C-4.3333581 -1.33332095 -2.83319697 -0.67102033 0 0 Z " fill="#2A2F2E" transform="translate(621,628)"/>
<path d="M0 0 C2.475 0.99 2.475 0.99 5 2 C3.68 3.32 2.36 4.64 1 6 C-0.0625 4.125 -0.0625 4.125 -1 2 C-0.67 1.34 -0.34 0.68 0 0 Z " fill="#424546" transform="translate(713,544)"/>
<path d="M0 0 C0.99 0 1.98 0 3 0 C3 2.97 3 5.94 3 9 C2.67 8.01 2.34 7.02 2 6 C1.34 6 0.68 6 0 6 C0 4.02 0 2.04 0 0 Z " fill="#212426" transform="translate(717,407)"/>
<path d="M0 0 C0.33 0.66 0.66 1.32 1 2 C0.01 3.485 0.01 3.485 -1 5 C-4.875 3.25 -4.875 3.25 -6 1 C-4.7934375 1.0309375 -4.7934375 1.0309375 -3.5625 1.0625 C-1.06645115 1.29633621 -1.06645115 1.29633621 0 0 Z " fill="#444547" transform="translate(239,633)"/>
<path d="M0 0 C1.32 0.66 2.64 1.32 4 2 C3.67 2.99 3.34 3.98 3 5 C1.68 5 0.36 5 -1 5 C-0.67 3.35 -0.34 1.7 0 0 Z " fill="#282C2D" transform="translate(615,233)"/>
<path d="M0 0 C1.98 0 3.96 0 6 0 C5.34 1.32 4.68 2.64 4 4 C2.35 3.67 0.7 3.34 -1 3 C-0.67 2.01 -0.34 1.02 0 0 Z " fill="#2C2F2E" transform="translate(520,161)"/>
<path d="M0 0 C0.66 1.32 1.32 2.64 2 4 C1.01 5.32 0.02 6.64 -1 8 C-1.625 5.6875 -1.625 5.6875 -2 3 C-1.34 2.01 -0.68 1.02 0 0 Z " fill="#3E4342" transform="translate(462,55)"/>
<path d="M0 0 C0.66 0 1.32 0 2 0 C2.99 1.98 3.98 3.96 5 6 C3.68 6 2.36 6 1 6 C0.67 4.02 0.34 2.04 0 0 Z " fill="#3E4241" transform="translate(460,801)"/>
<path d="M0 0 C1.5625 1.25 1.5625 1.25 3 3 C2.6875 5.1875 2.6875 5.1875 2 7 C0.4375 5.75 0.4375 5.75 -1 4 C-0.6875 1.8125 -0.6875 1.8125 0 0 Z " fill="#3D3E40" transform="translate(183,563)"/>
<path d="M0 0 C2 3.875 2 3.875 2 5 C0.35 5 -1.3 5 -3 5 C-3 4.01 -3 3.02 -3 2 C-2.01 1.34 -1.02 0.68 0 0 Z " fill="#2C2F32" transform="translate(541,505)"/>
<path d="M0 0 C0.66 0.33 1.32 0.66 2 1 C1.67 1.99 1.34 2.98 1 4 C-0.98 4 -2.96 4 -5 4 C-3.36587557 2.29159719 -2.13093906 1.06546953 0 0 Z " fill="#2C3133" transform="translate(437,440)"/>
<path d="M0 0 C2.475 0.99 2.475 0.99 5 2 C3.625 4 3.625 4 2 6 C1.34 6 0.68 6 0 6 C0 4.02 0 2.04 0 0 Z " fill="#424748" transform="translate(28,384)"/>
<path d="M0 0 C0.66 0.33 1.32 0.66 2 1 C1.67 2.32 1.34 3.64 1 5 C-0.32 4.67 -1.64 4.34 -3 4 C-3 3.34 -3 2.68 -3 2 C-2.01 1.34 -1.02 0.68 0 0 Z " fill="#2D3031" transform="translate(649,269)"/>
<path d="M0 0 C-1.13719419 3.41158256 -2.04342944 4.11854601 -5 6 C-5.66 6 -6.32 6 -7 6 C-7 5.01 -7 4.02 -7 3 C-2.77777778 0 -2.77777778 0 0 0 Z " fill="#3C4040" transform="translate(284,213)"/>
</svg>
